<svg width="24" height="20" viewBox="0 0 24 20" fill="none" xmlns="http://www.w3.org/2000/svg">
<path d="M17.5 2C15.55 2 13.45 2.39746 12 3.49047C10.55 2.39746 8.45 2 6.5 2C5.05 2 3.51 2.2186 2.22 2.78498C1.49 3.11288 1 3.81837 1 4.62322V15.8315C1 17.1233 2.22 18.0772 3.48 17.7592C4.46 17.5108 5.5 17.4015 6.5 17.4015C8.06 17.4015 9.72 17.6599 11.06 18.3157C11.66 18.6138 12.34 18.6138 12.93 18.3157C14.27 17.6499 15.93 17.4015 17.49 17.4015C18.49 17.4015 19.53 17.5108 20.51 17.7592C21.77 18.0871 22.99 17.1332 22.99 15.8315V4.62322C22.99 3.81837 22.5 3.11288 21.77 2.78498C20.49 2.2186 18.95 2 17.5 2ZM21 14.6491C21 15.2751 20.42 15.7322 19.8 15.6229C19.05 15.4838 18.27 15.4242 17.5 15.4242C15.8 15.4242 13.35 16.07 12 16.9146V5.47776C13.35 4.63316 15.8 3.98729 17.5 3.98729C18.42 3.98729 19.33 4.07672 20.2 4.26551C20.66 4.36488 21 4.77227 21 5.23929V14.6491Z" fill="url(#paint0_linear_358_6)"/>
<path d="M13.98 8.46864C13.66 8.46864 13.37 8.26991 13.27 7.95195C13.14 7.56442 13.36 7.13716 13.75 7.01792C15.29 6.5211 17.28 6.36211 19.11 6.57078C19.52 6.62046 19.82 6.98811 19.77 7.39551C19.72 7.8029 19.35 8.10099 18.94 8.05131C17.32 7.86252 15.55 8.01156 14.21 8.43883C14.13 8.44877 14.05 8.46864 13.98 8.46864Z" fill="url(#paint1_linear_358_6)"/>
<path d="M13.98 11.1117C13.66 11.1117 13.37 10.913 13.27 10.595C13.14 10.2075 13.36 9.78022 13.75 9.66099C15.28 9.16416 17.28 9.00518 19.11 9.21385C19.52 9.26353 19.82 9.63118 19.77 10.0386C19.72 10.446 19.35 10.7441 18.94 10.6944C17.32 10.5056 15.55 10.6546 14.21 11.0819C14.13 11.1018 14.05 11.1117 13.98 11.1117Z" fill="url(#paint2_linear_358_6)"/>
<path d="M13.98 13.7548C13.66 13.7548 13.37 13.5561 13.27 13.2381C13.14 12.8506 13.36 12.4234 13.75 12.3041C15.28 11.8073 17.28 11.6483 19.11 11.857C19.52 11.9067 19.82 12.2743 19.77 12.6817C19.72 13.0891 19.35 13.3773 18.94 13.3375C17.32 13.1487 15.55 13.2978 14.21 13.725C14.13 13.7449 14.05 13.7548 13.98 13.7548Z" fill="url(#paint3_linear_358_6)"/>
<defs>
<linearGradient id="paint0_linear_358_6" x1="11.995" y1="2" x2="11.995" y2="18.5392" gradientUnits="userSpaceOnUse">
<stop stop-color="#B629F8"/>
<stop offset="1" stop-color="#800ADD"/>
</linearGradient>
<linearGradient id="paint1_linear_358_6" x1="16.504" y1="6.48126" x2="16.504" y2="8.46864" gradientUnits="userSpaceOnUse">
<stop stop-color="#B629F8"/>
<stop offset="1" stop-color="#800ADD"/>
</linearGradient>
<linearGradient id="paint2_linear_358_6" x1="16.504" y1="9.12433" x2="16.504" y2="11.1117" gradientUnits="userSpaceOnUse">
<stop stop-color="#B629F8"/>
<stop offset="1" stop-color="#800ADD"/>
</linearGradient>
<linearGradient id="paint3_linear_358_6" x1="16.504" y1="11.7675" x2="16.504" y2="13.7548" gradientUnits="userSpaceOnUse">
<stop stop-color="#B629F8"/>
<stop offset="1" stop-color="#800ADD"/>
</linearGradient>
</defs>
</svg>
