<svg width="24" height="22" viewBox="0 0 24 22" fill="none" xmlns="http://www.w3.org/2000/svg">
<path d="M12.65 14.67C12.79 14.31 12.7 13.9 12.42 13.62L10.33 11.56L10.36 11.53C12.1 9.59 13.34 7.36 14.07 5H16.01C16.55 5 17 4.55 17 4.01V3.99C17 3.45 16.55 3 16.01 3H10V2C10 1.45 9.55 1 9 1C8.45 1 8 1.45 8 2V3H1.99C1.45 3 1 3.45 1 3.99C1 4.54 1.45 4.98 1.99 4.98H12.17C11.5 6.92 10.44 8.75 9 10.35C8.19 9.46 7.51 8.49 6.94 7.47C6.78 7.18 6.49 7 6.16 7C5.47 7 5.03 7.75 5.37 8.35C6 9.48 6.77 10.56 7.67 11.56L3.3 15.87C2.9 16.26 2.9 16.9 3.3 17.29C3.69 17.68 4.32 17.68 4.72 17.29L9 13L11.02 15.02C11.53 15.53 12.4 15.34 12.65 14.67V14.67ZM17.5 9C16.9 9 16.36 9.37 16.15 9.94L12.48 19.74C12.24 20.35 12.7 21 13.35 21C13.74 21 14.09 20.76 14.23 20.39L15.12 18H19.87L20.77 20.39C20.91 20.75 21.26 21 21.65 21C22.3 21 22.76 20.35 22.53 19.74L18.86 9.94C18.64 9.37 18.1 9 17.5 9V9ZM15.88 16L17.5 11.67L19.12 16H15.88V16Z" fill="url(#paint0_linear_358_13)"/>
<defs>
<linearGradient id="paint0_linear_358_13" x1="11.795" y1="1" x2="11.795" y2="21" gradientUnits="userSpaceOnUse">
<stop stop-color="#B629F8"/>
<stop offset="1" stop-color="#800ADD"/>
</linearGradient>
</defs>
</svg>
