<svg width="364" height="50" viewBox="0 0 364 50" fill="none" xmlns="http://www.w3.org/2000/svg">
<path d="M16.52 4.91999C20.808 4.91999 24.504 6.27999 27.608 8.99999L23.624 13.176C22.44 12.28 21.336 11.64 20.312 11.256C19.32 10.84 18.168 10.632 16.856 10.632C14.392 10.632 12.424 11.608 10.952 13.56C9.47999 15.48 8.74399 18.408 8.74399 22.344C8.74399 26.6 9.30398 29.624 10.424 31.416C11.544 33.176 13.288 34.056 15.656 34.056C17.32 34.056 18.824 33.688 20.168 32.952V25.416H15.848L15.08 19.848H27.8V36.312C26.072 37.432 24.168 38.296 22.088 38.904C20.008 39.512 17.928 39.816 15.848 39.816C10.792 39.816 6.98398 38.344 4.42398 35.4C1.86398 32.424 0.583984 28.072 0.583984 22.344C0.583984 18.696 1.27198 15.56 2.64798 12.936C4.05598 10.312 5.95998 8.32799 8.35998 6.98399C10.792 5.60799 13.512 4.91999 16.52 4.91999Z" fill="#141414"/>
<path d="M53.1695 31.608C53.1695 32.568 53.2975 33.272 53.5535 33.72C53.8415 34.168 54.2895 34.504 54.8975 34.728L53.3135 39.672C51.7455 39.544 50.4655 39.208 49.4735 38.664C48.4815 38.088 47.7135 37.192 47.1695 35.976C45.5055 38.536 42.9455 39.816 39.4895 39.816C36.9615 39.816 34.9455 39.08 33.4415 37.608C31.9375 36.136 31.1855 34.216 31.1855 31.848C31.1855 29.064 32.2095 26.936 34.2575 25.464C36.3055 23.992 39.2655 23.256 43.1375 23.256H45.7295V22.152C45.7295 20.648 45.4095 19.624 44.7695 19.08C44.1295 18.504 43.0095 18.216 41.4095 18.216C40.5775 18.216 39.5695 18.344 38.3855 18.6C37.2015 18.824 35.9855 19.144 34.7375 19.56L33.0095 14.568C34.6095 13.96 36.2415 13.496 37.9055 13.176C39.6015 12.856 41.1695 12.696 42.6095 12.696C46.2575 12.696 48.9295 13.448 50.6255 14.952C52.3215 16.456 53.1695 18.712 53.1695 21.72V31.608ZM41.6975 34.392C43.4255 34.392 44.7695 33.576 45.7295 31.944V27.432H43.8575C42.1295 27.432 40.8335 27.736 39.9695 28.344C39.1375 28.952 38.7215 29.896 38.7215 31.176C38.7215 32.2 38.9775 33 39.4895 33.576C40.0335 34.12 40.7695 34.392 41.6975 34.392Z" fill="#141414"/>
<path d="M73.6584 12.696C76.6984 12.696 79.0344 13.896 80.6664 16.296C82.2984 18.664 83.1144 21.992 83.1144 26.28C83.1144 28.904 82.6984 31.24 81.8664 33.288C81.0664 35.336 79.8984 36.936 78.3624 38.088C76.8584 39.24 75.0664 39.816 72.9864 39.816C71.6104 39.816 70.3464 39.528 69.1944 38.952C68.0744 38.376 67.1144 37.576 66.3144 36.552L65.9304 39H59.2104V3.38399L66.7944 2.56799V16.104C67.5624 15.048 68.5384 14.216 69.7224 13.608C70.9384 13 72.2504 12.696 73.6584 12.696ZM70.7784 34.296C73.7544 34.296 75.2424 31.624 75.2424 26.28C75.2424 23.24 74.8904 21.144 74.1864 19.992C73.4824 18.84 72.4584 18.264 71.1144 18.264C69.4184 18.264 67.9784 19.256 66.7944 21.24V31.848C67.2744 32.616 67.8504 33.224 68.5224 33.672C69.2264 34.088 69.9784 34.296 70.7784 34.296Z" fill="#141414"/>
<path d="M101.675 12.792C102.603 12.792 103.451 12.904 104.219 13.128L103.019 20.472C102.059 20.248 101.291 20.136 100.715 20.136C99.211 20.136 98.059 20.664 97.259 21.72C96.491 22.744 95.883 24.296 95.435 26.376V39H87.851V13.512H94.475L95.099 18.456C95.675 16.696 96.539 15.32 97.691 14.328C98.875 13.304 100.203 12.792 101.675 12.792Z" fill="#141414"/>
<path d="M114.701 13.512V39H107.117V13.512H114.701ZM110.861 0.071991C112.173 0.071991 113.245 0.487991 114.077 1.31999C114.941 2.11999 115.373 3.14399 115.373 4.39199C115.373 5.63999 114.941 6.67999 114.077 7.51199C113.245 8.31199 112.173 8.71199 110.861 8.71199C109.549 8.71199 108.477 8.31199 107.645 7.51199C106.813 6.67999 106.397 5.63999 106.397 4.39199C106.397 3.14399 106.813 2.11999 107.645 1.31999C108.477 0.487991 109.549 0.071991 110.861 0.071991Z" fill="#141414"/>
<path d="M142.887 25.752C142.887 26.808 142.839 27.72 142.743 28.488H126.951C127.207 30.632 127.815 32.136 128.775 33C129.735 33.864 131.063 34.296 132.759 34.296C133.783 34.296 134.775 34.12 135.735 33.768C136.695 33.384 137.735 32.808 138.855 32.04L141.975 36.264C138.999 38.632 135.687 39.816 132.039 39.816C127.911 39.816 124.743 38.6 122.535 36.168C120.327 33.736 119.223 30.472 119.223 26.376C119.223 23.784 119.687 21.464 120.615 19.416C121.543 17.336 122.903 15.704 124.695 14.52C126.487 13.304 128.631 12.696 131.127 12.696C134.807 12.696 137.687 13.848 139.767 16.152C141.847 18.456 142.887 21.656 142.887 25.752ZM135.447 23.592C135.383 19.688 134.007 17.736 131.319 17.736C130.007 17.736 128.983 18.216 128.247 19.176C127.543 20.136 127.111 21.72 126.951 23.928H135.447V23.592Z" fill="#141414"/>
<path d="M153.916 39.816C151.708 39.816 149.98 39.192 148.732 37.944C147.516 36.664 146.908 34.856 146.908 32.52V3.38399L154.492 2.56799V32.232C154.492 33.288 154.924 33.816 155.788 33.816C156.236 33.816 156.652 33.736 157.036 33.576L158.524 38.952C157.148 39.528 155.612 39.816 153.916 39.816Z" fill="#141414"/>
<path d="M190.644 21.384C192.852 21.8 194.644 22.616 196.02 23.832C197.428 25.048 198.132 26.872 198.132 29.304C198.132 32.856 196.852 35.368 194.292 36.84C191.764 38.28 188.212 39 183.636 39H172.932V5.73599H182.34C187.012 5.73599 190.58 6.40799 193.044 7.75199C195.508 9.06399 196.74 11.224 196.74 14.232C196.74 16.184 196.148 17.768 194.964 18.984C193.812 20.168 192.372 20.968 190.644 21.384ZM180.804 11.304V19.032H183.732C187.06 19.032 188.724 17.688 188.724 15C188.724 13.656 188.276 12.712 187.38 12.168C186.484 11.592 185.06 11.304 183.108 11.304H180.804ZM183.684 33.288C185.764 33.288 187.332 32.984 188.388 32.376C189.476 31.736 190.02 30.568 190.02 28.872C190.02 25.8 188.1 24.264 184.26 24.264H180.804V33.288H183.684Z" fill="#141414"/>
<path d="M224.637 25.752C224.637 26.808 224.589 27.72 224.493 28.488H208.701C208.957 30.632 209.565 32.136 210.525 33C211.485 33.864 212.813 34.296 214.509 34.296C215.533 34.296 216.525 34.12 217.485 33.768C218.445 33.384 219.485 32.808 220.605 32.04L223.725 36.264C220.749 38.632 217.437 39.816 213.789 39.816C209.661 39.816 206.493 38.6 204.285 36.168C202.077 33.736 200.973 30.472 200.973 26.376C200.973 23.784 201.437 21.464 202.365 19.416C203.293 17.336 204.653 15.704 206.445 14.52C208.237 13.304 210.381 12.696 212.877 12.696C216.557 12.696 219.437 13.848 221.517 16.152C223.597 18.456 224.637 21.656 224.637 25.752ZM217.197 23.592C217.133 19.688 215.757 17.736 213.069 17.736C211.757 17.736 210.733 18.216 209.997 19.176C209.293 20.136 208.861 21.72 208.701 23.928H217.197V23.592Z" fill="#141414"/>
<path d="M242.722 12.792C243.65 12.792 244.498 12.904 245.266 13.128L244.066 20.472C243.106 20.248 242.338 20.136 241.762 20.136C240.258 20.136 239.106 20.664 238.306 21.72C237.538 22.744 236.93 24.296 236.482 26.376V39H228.898V13.512H235.522L236.146 18.456C236.722 16.696 237.586 15.32 238.738 14.328C239.922 13.304 241.25 12.792 242.722 12.792Z" fill="#141414"/>
<path d="M271.073 15C269.409 15.672 266.961 16.008 263.729 16.008C265.393 16.712 266.609 17.576 267.377 18.6C268.145 19.624 268.529 20.952 268.529 22.584C268.529 24.216 268.097 25.688 267.233 27C266.369 28.28 265.121 29.288 263.489 30.024C261.889 30.76 260.001 31.128 257.825 31.128C256.801 31.128 255.825 31.032 254.897 30.84C254.641 30.968 254.433 31.176 254.273 31.464C254.145 31.72 254.081 31.992 254.081 32.28C254.081 32.76 254.257 33.144 254.609 33.432C254.993 33.688 255.745 33.816 256.865 33.816H260.705C262.657 33.816 264.369 34.136 265.841 34.776C267.313 35.416 268.449 36.296 269.249 37.416C270.049 38.536 270.449 39.8 270.449 41.208C270.449 43.864 269.297 45.928 266.993 47.4C264.721 48.904 261.425 49.656 257.105 49.656C254.001 49.656 251.553 49.32 249.761 48.648C247.969 48.008 246.705 47.096 245.969 45.912C245.265 44.728 244.913 43.24 244.913 41.448H251.729C251.729 42.216 251.873 42.824 252.161 43.272C252.481 43.72 253.041 44.056 253.841 44.28C254.641 44.504 255.793 44.616 257.297 44.616C259.377 44.616 260.817 44.36 261.617 43.848C262.417 43.368 262.817 42.664 262.817 41.736C262.817 40.968 262.513 40.36 261.905 39.912C261.297 39.464 260.385 39.24 259.169 39.24H255.473C252.849 39.24 250.881 38.776 249.569 37.848C248.289 36.888 247.649 35.672 247.649 34.2C247.649 33.272 247.921 32.376 248.465 31.512C249.009 30.616 249.745 29.88 250.673 29.304C249.073 28.44 247.905 27.432 247.169 26.28C246.465 25.096 246.113 23.672 246.113 22.008C246.113 19.16 247.137 16.904 249.185 15.24C251.233 13.544 253.937 12.696 257.297 12.696C259.857 12.76 262.017 12.504 263.777 11.928C265.569 11.352 267.409 10.504 269.297 9.38399L271.073 15ZM257.489 17.688C256.305 17.688 255.361 18.072 254.657 18.84C253.985 19.576 253.649 20.6 253.649 21.912C253.649 23.288 253.985 24.36 254.657 25.128C255.361 25.864 256.305 26.232 257.489 26.232C258.737 26.232 259.681 25.864 260.321 25.128C260.993 24.392 261.329 23.288 261.329 21.816C261.329 19.064 260.049 17.688 257.489 17.688Z" fill="#141414"/>
<path d="M293.169 31.608C293.169 32.568 293.297 33.272 293.553 33.72C293.841 34.168 294.289 34.504 294.897 34.728L293.313 39.672C291.745 39.544 290.465 39.208 289.473 38.664C288.481 38.088 287.714 37.192 287.169 35.976C285.505 38.536 282.945 39.816 279.489 39.816C276.961 39.816 274.945 39.08 273.441 37.608C271.938 36.136 271.185 34.216 271.185 31.848C271.185 29.064 272.209 26.936 274.257 25.464C276.305 23.992 279.265 23.256 283.137 23.256H285.729V22.152C285.729 20.648 285.409 19.624 284.769 19.08C284.129 18.504 283.009 18.216 281.409 18.216C280.577 18.216 279.569 18.344 278.385 18.6C277.202 18.824 275.985 19.144 274.737 19.56L273.009 14.568C274.609 13.96 276.241 13.496 277.905 13.176C279.602 12.856 281.169 12.696 282.609 12.696C286.258 12.696 288.929 13.448 290.625 14.952C292.322 16.456 293.169 18.712 293.169 21.72V31.608ZM281.697 34.392C283.425 34.392 284.77 33.576 285.729 31.944V27.432H283.857C282.129 27.432 280.833 27.736 279.969 28.344C279.137 28.952 278.721 29.896 278.721 31.176C278.721 32.2 278.977 33 279.489 33.576C280.033 34.12 280.769 34.392 281.697 34.392Z" fill="#141414"/>
<path d="M327.386 12.696C329.402 12.696 331.018 13.384 332.234 14.76C333.45 16.104 334.058 17.976 334.058 20.376V39H326.474V21.672C326.474 19.4 325.754 18.264 324.314 18.264C323.514 18.264 322.81 18.536 322.202 19.08C321.594 19.624 321.002 20.456 320.426 21.576V39H312.842V21.672C312.842 19.4 312.122 18.264 310.682 18.264C309.914 18.264 309.21 18.552 308.57 19.128C307.962 19.672 307.37 20.488 306.794 21.576V39H299.21V13.512H305.834L306.362 16.488C307.354 15.208 308.442 14.264 309.626 13.656C310.842 13.016 312.218 12.696 313.754 12.696C315.194 12.696 316.426 13.048 317.45 13.752C318.506 14.456 319.274 15.448 319.754 16.728C320.778 15.352 321.898 14.344 323.114 13.704C324.362 13.032 325.786 12.696 327.386 12.696Z" fill="#141414"/>
<path d="M350.797 12.696C354.701 12.696 357.757 13.896 359.965 16.296C362.173 18.664 363.277 21.992 363.277 26.28C363.277 29 362.765 31.384 361.741 33.432C360.749 35.448 359.309 37.016 357.421 38.136C355.565 39.256 353.357 39.816 350.797 39.816C346.925 39.816 343.869 38.632 341.629 36.264C339.421 33.864 338.317 30.52 338.317 26.232C338.317 23.512 338.813 21.144 339.805 19.128C340.829 17.08 342.269 15.496 344.125 14.376C346.013 13.256 348.237 12.696 350.797 12.696ZM350.797 18.264C349.261 18.264 348.109 18.92 347.341 20.232C346.573 21.512 346.189 23.512 346.189 26.232C346.189 29.016 346.557 31.048 347.293 32.328C348.061 33.608 349.229 34.248 350.797 34.248C352.333 34.248 353.485 33.608 354.253 32.328C355.021 31.016 355.405 29 355.405 26.28C355.405 23.496 355.021 21.464 354.253 20.184C353.517 18.904 352.365 18.264 350.797 18.264Z" fill="#141414"/>
</svg>
